<?xml version="1.0" encoding="UTF-8"?>
<svg width="103px" height="50px" viewBox="0 0 103 50" version="1.1" xmlns="http://www.w3.org/2000/svg" xmlns:xlink="http://www.w3.org/1999/xlink">
    <!-- Generator: Sketch 48.2 (47327) - http://www.bohemiancoding.com/sketch -->
    <title>logo</title>
    <desc>Created with Sketch.</desc>
    <defs></defs>
    <g id="header" stroke="none" stroke-width="1" fill="none" fill-rule="evenodd" transform="translate(-53.000000, -30.000000)">
        <g id="logo_menu">
            <g transform="translate(53.000000, 30.000000)">
                <g id="logo">
                    <path d="M70.5102041,6.83397683 C70.5102041,6.83397683 64.8979592,15.3033646 64.8979592,15.4054054 C64.8979592,15.4054054 64.8979592,15.4054054 64.7959184,15.4054054 C64.3877551,14.8952013 61.8367347,11.6298952 61.8367347,11.6298952 C58.7755102,13.976834 55.3061224,15.609487 51.5306122,16.731936 L56.122449,22.6503034 L56.122449,22.7523442 C55.4081633,23.7727523 46.3265306,37.3441809 46.2244898,37.3441809 L46.122449,37.3441809 L46.122449,17.854385 C42.9591837,18.2625483 40,18.4666299 37.0408163,18.4666299 L34.1836735,18.4666299 L34.1836735,26.3237728 C34.1836735,26.3237728 34.0816327,26.4258136 34.0816327,26.3237728 C33.6734694,25.2013238 33.0612245,24.3849972 32.4489796,23.7727523 C28.5714286,19.5890789 15.2040816,18.0584666 13.3673469,16.0176503 C12.9591837,15.609487 12.8571429,14.9972421 12.8571429,14.4870381 C12.8571429,12.7523442 13.9795918,11.6298952 16.8367347,11.5278544 C18.9795918,11.4258136 20.7142857,12.4462217 21.122449,16.5278544 L32.8571429,16.5278544 C32.8571429,16.1196911 32.755102,15.4054054 32.6530612,14.9972421 C32.0408163,8.97683398 28.9795918,5.40540541 17.4489796,5.40540541 C10.4081633,5.40540541 5.51020408,6.6298952 2.85714286,9.38499724 C1.12244898,11.1196911 0.306122449,13.3645891 0.306122449,16.2217319 C0.306122449,18.1605074 0.816326531,20.5074462 2.34693878,22.1400993 C4.08163265,23.8747932 7.75510204,25.2013238 11.4285714,26.3237728 C16.0204082,27.6503034 20.7142857,28.7727523 21.5306122,29.8952013 C21.8367347,30.3033646 22.0408163,30.9156095 22.0408163,31.5278544 C22.0408163,34.1809156 19.3877551,34.9972421 16.7346939,34.9972421 C15.1020408,34.9972421 13.9795918,34.5890789 13.2653061,33.6707115 C12.5510204,32.7523442 12.0408163,31.4258136 12.0408163,29.4870381 L0,29.2829564 C0.102040816,32.9564258 0.612244898,35.8135687 2.85714286,37.7523442 C5.20408163,39.7931605 9.28571429,41.0176503 16.6326531,41.0176503 C27.0408163,41.0176503 32.3469388,38.1605074 34.0816327,33.6707115 L34.1836735,33.6707115 L34.1836735,40.099283 L57.5510204,40.099283 L64.1836735,30.609487 L64.2857143,30.609487 C64.7959184,31.4258136 70.6122449,40.099283 70.6122449,40.099283 L95.4081633,40.099283 L95.4081633,16.5278544 L95.4081633,16.5278544 L102.55102,16.5278544 L102.55102,6.83397683 L70.5102041,6.83397683 L70.5102041,6.83397683 Z M83.3673469,37.4462217 C83.3673469,37.5482625 83.3673469,37.5482625 83.3673469,37.4462217 C83.2653061,37.4462217 72.8571429,22.9564258 72.8571429,22.9564258 C72.8571429,22.9564258 72.8571429,22.9564258 72.8571429,22.854385 C73.2653061,22.3441809 77.3469388,16.5278544 77.4489796,16.5278544 L77.5510204,16.5278544 L83.4693878,16.5278544 L83.4693878,16.5278544 L83.4693878,37.3441809 L83.3673469,37.4462217 L83.3673469,37.4462217 Z" id="Shape" fill="#191919"></path>
                    <path d="M59.6938776,11.0204082 C54.1836735,14.7959184 46.5306122,16.9387755 36.7346939,16.8367347 C35.9183673,16.8367347 35,16.8367347 34.1836735,16.7346939 L34.1836735,7.14285714 C42.9591837,7.85714286 48.9795918,6.2244898 52.6530612,3.57142857 C54.0816327,2.55102041 55.1020408,1.32653061 55.8163265,0 L68.2653061,0 C66.6326531,4.48979592 63.7755102,8.26530612 59.6938776,11.0204082 L59.6938776,11.0204082 L59.6938776,11.0204082 Z" id="Shape" fill="#FF5F00"></path>
                    <path d="M44.2857143,46.3265306 C43.3673469,46.3265306 42.755102,46.8367347 42.755102,47.755102 L42.755102,49.4897959 L41.0204082,49.4897959 L41.0204082,45.9183673 L41.0204082,45 L42.755102,45 L42.755102,46.0204082 L42.755102,46.0204082 C43.1632653,45.1020408 43.6734694,45 44.7959184,45 L44.7959184,46.5306122 C44.5918367,46.3265306 44.4897959,46.3265306 44.2857143,46.3265306 L44.2857143,46.3265306 L44.2857143,46.3265306 Z" id="Shape" fill="#191919"></path>
                    <path d="M48.3673469,48.7755102 C47.6530612,48.7755102 47.244898,48.3673469 47.1428571,47.6530612 L51.3265306,47.6530612 C51.3265306,45.8163265 50.5102041,44.7959184 48.3673469,44.7959184 C46.8367347,44.7959184 45.4081633,45.6122449 45.4081633,47.3469388 C45.4081633,49.1836735 46.8367347,49.6938776 48.3673469,49.6938776 C49.5918367,49.6938776 50.9183673,49.5918367 51.2244898,48.1632653 L49.3877551,48.1632653 C49.2857143,48.4693878 49.0816327,48.7755102 48.3673469,48.7755102 L48.3673469,48.7755102 Z M48.2653061,45.7142857 C48.877551,45.7142857 49.3877551,45.9183673 49.3877551,46.7346939 L47.1428571,46.7346939 C47.244898,46.2244898 47.4489796,45.7142857 48.2653061,45.7142857 L48.2653061,45.7142857 Z" id="Shape" fill="#191919"></path>
                    <path d="M56.6326531,49.4897959 L56.6326531,47.1428571 C56.6326531,46.4285714 56.3265306,45.9183673 55.5102041,45.9183673 C54.7959184,45.9183673 54.1836735,46.4285714 54.1836735,47.4489796 L54.1836735,49.4897959 L52.4489796,49.4897959 L52.4489796,45.9183673 L52.4489796,45 L54.0816327,45 L54.0816327,45.8163265 L54.0816327,45.8163265 C54.4897959,45.2040816 55.2040816,44.7959184 56.0204082,44.7959184 C57.6530612,44.7959184 58.3673469,45.7142857 58.3673469,46.9387755 L58.3673469,49.5918367 L56.6326531,49.5918367 L56.6326531,49.4897959 L56.6326531,49.4897959 Z" id="Shape" fill="#191919"></path>
                    <path d="M62.9591837,48.4693878 C63.1632653,48.4693878 63.3673469,48.4693878 63.6734694,48.3673469 L63.6734694,49.4897959 C63.4693878,49.4897959 63.0612245,49.5918367 62.4489796,49.5918367 C61.122449,49.5918367 60.4081633,49.0816327 60.4081633,47.9591837 L60.4081633,46.0204082 L59.2857143,46.0204082 L59.2857143,44.8979592 L60.4081633,44.8979592 L60.4081633,43.9795918 L62.1428571,43.3673469 L62.1428571,44.8979592 L63.5714286,44.8979592 L63.5714286,46.0204082 L62.1428571,46.0204082 L62.1428571,47.4489796 C62.1428571,48.1632653 62.244898,48.4693878 62.9591837,48.4693878 L62.9591837,48.4693878 L62.9591837,48.4693878 Z" id="Shape" fill="#191919"></path>
                    <path d="M73.2653061,48.4693878 L73.2653061,46.7346939 C73.2653061,45.2040816 72.244898,44.7959184 70.4081633,44.7959184 C69.1836735,44.7959184 67.8571429,45.1020408 67.755102,46.3265306 L69.5918367,46.3265306 C69.5918367,46.0204082 69.7959184,45.7142857 70.4081633,45.7142857 C71.122449,45.7142857 71.4285714,45.9183673 71.4285714,46.6326531 L70.1020408,46.6326531 C68.3673469,46.6326531 67.3469388,47.1428571 67.3469388,48.1632653 C67.3469388,49.0816327 68.1632653,49.6938776 69.3877551,49.6938776 C70.2040816,49.6938776 70.9183673,49.4897959 71.3265306,48.7755102 L71.3265306,48.7755102 L71.3265306,49.4897959 L73.0612245,49.4897959 C73.2653061,49.1836735 73.2653061,48.877551 73.2653061,48.4693878 L73.2653061,48.4693878 Z M70.1020408,48.6734694 C69.5918367,48.6734694 69.3877551,48.4693878 69.3877551,48.1632653 C69.3877551,47.755102 69.5918367,47.4489796 70.8163265,47.4489796 L71.5306122,47.4489796 C71.5306122,48.0612245 71.2244898,48.6734694 70.1020408,48.6734694 L70.1020408,48.6734694 Z" id="Shape" fill="#191919"></path>
                    <path d="M80.8163265,45.8163265 C80,45.8163265 79.5918367,46.4285714 79.5918367,47.244898 C79.5918367,48.0612245 80,48.6734694 80.8163265,48.6734694 C81.4285714,48.6734694 81.8367347,48.3673469 81.8367347,47.755102 L83.6734694,47.755102 C83.4693878,49.2857143 82.0408163,49.5918367 80.7142857,49.5918367 C79.3877551,49.5918367 77.755102,48.9795918 77.755102,47.1428571 C77.755102,45.3061224 79.2857143,44.6938776 80.8163265,44.6938776 C82.0408163,44.6938776 83.4693878,45.1020408 83.6734694,46.5306122 L81.8367347,46.5306122 C81.7346939,46.0204082 81.4285714,45.8163265 80.8163265,45.8163265 L80.8163265,45.8163265 L80.8163265,45.8163265 Z" id="Shape" fill="#191919"></path>
                    <path d="M90.2040816,48.4693878 L90.2040816,46.7346939 C90.2040816,45.2040816 89.1836735,44.7959184 87.3469388,44.7959184 C86.122449,44.7959184 84.7959184,45.1020408 84.6938776,46.3265306 L86.5306122,46.3265306 C86.5306122,46.0204082 86.7346939,45.7142857 87.3469388,45.7142857 C88.0612245,45.7142857 88.3673469,45.9183673 88.3673469,46.6326531 L87.0408163,46.6326531 C85.3061224,46.6326531 84.2857143,47.1428571 84.2857143,48.1632653 C84.2857143,49.0816327 85.1020408,49.6938776 86.3265306,49.6938776 C87.1428571,49.6938776 87.8571429,49.4897959 88.2653061,48.7755102 L88.2653061,48.7755102 L88.2653061,49.4897959 L90,49.4897959 C90.2040816,49.1836735 90.2040816,48.877551 90.2040816,48.4693878 L90.2040816,48.4693878 Z M87.0408163,48.6734694 C86.5306122,48.6734694 86.3265306,48.4693878 86.3265306,48.1632653 C86.3265306,47.755102 86.5306122,47.4489796 87.755102,47.4489796 L88.4693878,47.4489796 C88.3673469,48.0612245 88.1632653,48.6734694 87.0408163,48.6734694 L87.0408163,48.6734694 Z" id="Shape" fill="#191919"></path>
                    <path d="M94.8979592,46.3265306 C93.9795918,46.3265306 93.3673469,46.8367347 93.3673469,47.755102 L93.3673469,49.4897959 L91.6326531,49.4897959 L91.6326531,45.9183673 L91.6326531,45 L93.3673469,45 L93.3673469,46.0204082 L93.3673469,46.0204082 C93.7755102,45.1020408 94.2857143,45 95.4081633,45 L95.4081633,46.5306122 C95.2040816,46.3265306 95.1020408,46.3265306 94.8979592,46.3265306 L94.8979592,46.3265306 L94.8979592,46.3265306 Z" id="Shape" fill="#191919"></path>
                </g>
            </g>
        </g>
    </g>
</svg>
